G04 Industrial RS-274X Extended Gerber*
G04 Layer: Top Copper (F_Cu)*
%FSLAX34Y34*%
%MOMM*%
%LPD*%
%ADD10C,1.150*%  G04 Pad Outer 1.15mm*
%ADD11C,2.200*%  G04 High-Current Pad 2.2mm*
%ADD12C,3.200*%  G04 M3 Mount Annular Ring*
%ADD13C,0.600*%  G04 Via Pad 0.6mm*
%ADD20C,0.450*%  G04 Signal Track 0.45mm*
%ADD21C,1.200*%  G04 Logic Power Track 1.2mm*
%ADD22C,2.200*%  G04 Servo Power Track 2.2mm*
%ADD23C,1.500*%  G04 Ground Bus Track 1.5mm*
G01*
D21*
X0060000Y0470800D02*
X0460000Y0470800D01*
X0460000Y0275000D01*
D21*
X0426599Y0024000D02*
X0426599Y0060000D01*
X0200000Y0060000D01*
X0200000Y0465000D01*
X0220000Y0465000D01*
D20*
X0200000Y0385000D02*
X0220000Y0385000D01*
D20*
X0200000Y0275000D02*
X0220000Y0275000D01*
D20*
X0200000Y0165000D02*
X0220000Y0165000D01*
D20*
X0426599Y0060000D02*
X0660000Y0060000D01*
X0660000Y0465000D01*
X0670000Y0465000D01*
D20*
X0660000Y0345000D02*
X0670000Y0345000D01*
D20*
X0660000Y0250000D02*
X0760000Y0250000D01*
D21*
X0660000Y0060000D02*
X1000400Y0060000D01*
X1000400Y0050800D01*
D20*
X0365400Y0465000D02*
X0365400Y0430000D01*
D20*
X0850000Y0430000D02*
X0850000Y0101600D01*
D20*
X0390800Y0465000D02*
X0390800Y0435000D01*
D20*
X0854200Y0435000D02*
X0854200Y0101600D01*
D20*
X0245400Y0385000D02*
X0245400Y0420000D01*
D20*
X0858400Y0420000D02*
X0858400Y0127000D01*
D20*
X0270800Y0385000D02*
X0270800Y0415000D01*
D20*
X0862600Y0415000D02*
X0862600Y0330200D01*
D20*
X0365400Y0385000D02*
X0365400Y0410000D01*
D20*
X0866800Y0410000D02*
X0866800Y0355600D01*
D20*
X0390800Y0385000D02*
X0390800Y0405000D01*
D20*
X0871000Y0405000D02*
X0871000Y0355600D01*
D20*
X0485400Y0385000D02*
X0485400Y0400000D01*
D20*
X0875200Y0400000D02*
X0875200Y0406400D01*
D20*
X0245400Y0275000D02*
X0245400Y0245000D01*
D20*
X0879400Y0245000D02*
X0879400Y0127000D01*
D20*
X0270800Y0275000D02*
X0270800Y0250000D01*
D20*
X0883600Y0250000D02*
X0883600Y0152400D01*
D20*
X0365400Y0275000D02*
X0365400Y0235000D01*
D20*
X0887800Y0235000D02*
X0887800Y0177800D01*
D20*
X0390800Y0275000D02*
X0390800Y0240000D01*
D20*
X0892000Y0240000D02*
X0892000Y0203200D01*
D20*
X0485400Y0275000D02*
X0485400Y0230000D01*
D20*
X0896200Y0230000D02*
X0896200Y0228600D01*
D20*
X0575400Y0275000D02*
X0575400Y0225000D01*
D20*
X0900400Y0225000D02*
X0900400Y0431800D01*
D20*
X0245400Y0165000D02*
X0245400Y0135000D01*
D20*
X0904599Y0135000D02*
X0904599Y0203200D01*
D20*
X0270800Y0165000D02*
X0270800Y0140000D01*
D20*
X0908800Y0140000D02*
X0908800Y0381000D01*
D20*
X0365400Y0165000D02*
X0365400Y0125000D01*
D20*
X0913000Y0125000D02*
X0913000Y0381000D01*
D20*
X0390800Y0165000D02*
X0390800Y0130000D01*
D20*
X0917200Y0130000D02*
X0917200Y0406400D01*
D20*
X0460000Y0165000D02*
X0460000Y0115000D01*
D20*
X0921400Y0115000D02*
X0921400Y0152400D01*
D20*
X0550000Y0165000D02*
X0550000Y0120000D01*
D20*
X0925600Y0120000D02*
X0925600Y0177800D01*
D20*
X0695400Y0465000D02*
X0695400Y0485000D01*
D20*
X0930000Y0485000D02*
X0930000Y0228600D01*
D20*
X0720800Y0465000D02*
X0720800Y0480000D01*
D20*
X0934200Y0480000D02*
X0934200Y0254000D01*
D20*
X0815400Y0465000D02*
X0815400Y0490000D01*
D20*
X0938400Y0490000D02*
X0938400Y0304800D01*
D20*
X0840800Y0465000D02*
X0840800Y0475000D01*
D20*
X0942600Y0475000D02*
X0942600Y0330200D01*
D20*
X0695400Y0345000D02*
X0695400Y0330000D01*
D20*
X0946800Y0330000D02*
X0946800Y0279400D01*
D20*
X0720800Y0345000D02*
X0720800Y0335000D01*
D20*
X0951000Y0335000D02*
X0951000Y0304800D01*
D20*
X0815400Y0345000D02*
X0815400Y0325000D01*
D20*
X0955200Y0325000D02*
X0955200Y0431800D01*
D20*
X0670000Y0165000D02*
X0670000Y0105000D01*
D20*
X0959400Y0105000D02*
X0959400Y0254000D01*
D20*
X0760000Y0165000D02*
X0760000Y0110000D01*
D20*
X0963600Y0110000D02*
X0963600Y0279400D01*
D20*
X0785400Y0250000D02*
X0785400Y0220000D01*
D20*
X0967800Y0220000D02*
X0967800Y0457200D01*
D10*
X0435000Y0511000D03*
D10*
X0460400Y0511000D03*
D10*
X0485800Y0511000D03*
D10*
X0511200Y0511000D03*
D10*
X0536600Y0511000D03*
D10*
X0562000Y0511000D03*
D10*
X0587400Y0511000D03*
D10*
X0612800Y0511000D03*
D10*
X0638200Y0511000D03*
D10*
X0663600Y0511000D03*
D10*
X0725000Y0511000D03*
D10*
X0750400Y0511000D03*
D10*
X0775800Y0511000D03*
D10*
X0801200Y0511000D03*
D10*
X0826600Y0511000D03*
D10*
X0852000Y0511000D03*
D10*
X0877400Y0511000D03*
D10*
X0902800Y0511000D03*
D10*
X0325000Y0024000D03*
D10*
X0350400Y0024000D03*
D10*
X0375800Y0024000D03*
D10*
X0401200Y0024000D03*
D10*
X0426599Y0024000D03*
D10*
X0452000Y0024000D03*
D10*
X0477400Y0024000D03*
D10*
X0502800Y0024000D03*
D10*
X0555000Y0024000D03*
D10*
X0580400Y0024000D03*
D10*
X0605800Y0024000D03*
D10*
X0631200Y0024000D03*
D10*
X0656600Y0024000D03*
D10*
X0682000Y0024000D03*
D10*
X0707400Y0024000D03*
D10*
X0732800Y0024000D03*
D10*
X0785000Y0024000D03*
D10*
X0810400Y0024000D03*
D10*
X0835800Y0024000D03*
D10*
X0861200Y0024000D03*
D10*
X0886600Y0024000D03*
D10*
X0912000Y0024000D03*
D10*
X0937400Y0024000D03*
D10*
X0962800Y0024000D03*
D10*
X0975000Y0050800D03*
D10*
X1000400Y0050800D03*
D10*
X0975000Y0076200D03*
D10*
X1000400Y0076200D03*
D10*
X0975000Y0101600D03*
D10*
X1000400Y0101600D03*
D10*
X0975000Y0127000D03*
D10*
X1000400Y0127000D03*
D10*
X0975000Y0152400D03*
D10*
X1000400Y0152400D03*
D10*
X0975000Y0177800D03*
D10*
X1000400Y0177800D03*
D10*
X0975000Y0203200D03*
D10*
X1000400Y0203200D03*
D10*
X0975000Y0228600D03*
D10*
X1000400Y0228600D03*
D10*
X0975000Y0254000D03*
D10*
X1000400Y0254000D03*
D10*
X0975000Y0279400D03*
D10*
X1000400Y0279400D03*
D10*
X0975000Y0304800D03*
D10*
X1000400Y0304800D03*
D10*
X0975000Y0330200D03*
D10*
X1000400Y0330200D03*
D10*
X0975000Y0355600D03*
D10*
X1000400Y0355600D03*
D10*
X0975000Y0381000D03*
D10*
X1000400Y0381000D03*
D10*
X0975000Y0406400D03*
D10*
X1000400Y0406400D03*
D10*
X0975000Y0431800D03*
D10*
X1000400Y0431800D03*
D10*
X0975000Y0457200D03*
D10*
X1000400Y0457200D03*
D10*
X0975000Y0482600D03*
D10*
X1000400Y0482600D03*
D11*
X0060000Y0420000D03*
D11*
X0060000Y0470800D03*
D11*
X0060000Y0280000D03*
D11*
X0060000Y0330800D03*
D10*
X0120000Y0420000D03*
D10*
X0120000Y0445400D03*
D10*
X0120000Y0280000D03*
D10*
X0120000Y0305400D03*
D10*
X0165000Y0420000D03*
D10*
X0190400Y0420000D03*
D10*
X0165000Y0280000D03*
D10*
X0190400Y0280000D03*
D10*
X0220000Y0465000D03*
D10*
X0245400Y0465000D03*
D10*
X0270800Y0465000D03*
D10*
X0296200Y0465000D03*
D10*
X0340000Y0465000D03*
D10*
X0365400Y0465000D03*
D10*
X0390800Y0465000D03*
D10*
X0416200Y0465000D03*
D10*
X0220000Y0385000D03*
D10*
X0245400Y0385000D03*
D10*
X0270800Y0385000D03*
D10*
X0296200Y0385000D03*
D10*
X0340000Y0385000D03*
D10*
X0365400Y0385000D03*
D10*
X0390800Y0385000D03*
D10*
X0416200Y0385000D03*
D10*
X0460000Y0465000D03*
D10*
X0485400Y0465000D03*
D10*
X0510800Y0465000D03*
D10*
X0550000Y0465000D03*
D10*
X0575400Y0465000D03*
D10*
X0600800Y0465000D03*
D10*
X0460000Y0385000D03*
D10*
X0485400Y0385000D03*
D10*
X0510800Y0385000D03*
D10*
X0220000Y0275000D03*
D10*
X0245400Y0275000D03*
D10*
X0270800Y0275000D03*
D10*
X0296200Y0275000D03*
D10*
X0340000Y0275000D03*
D10*
X0365400Y0275000D03*
D10*
X0390800Y0275000D03*
D10*
X0416200Y0275000D03*
D10*
X0220000Y0165000D03*
D10*
X0245400Y0165000D03*
D10*
X0270800Y0165000D03*
D10*
X0296200Y0165000D03*
D10*
X0340000Y0165000D03*
D10*
X0365400Y0165000D03*
D10*
X0390800Y0165000D03*
D10*
X0416200Y0165000D03*
D10*
X0460000Y0275000D03*
D10*
X0485400Y0275000D03*
D10*
X0510800Y0275000D03*
D10*
X0460000Y0165000D03*
D10*
X0485400Y0165000D03*
D10*
X0510800Y0165000D03*
D10*
X0550000Y0165000D03*
D10*
X0575400Y0165000D03*
D10*
X0600800Y0165000D03*
D10*
X0550000Y0275000D03*
D10*
X0575400Y0275000D03*
D10*
X0600800Y0275000D03*
D10*
X0670000Y0465000D03*
D10*
X0695400Y0465000D03*
D10*
X0720800Y0465000D03*
D10*
X0746200Y0465000D03*
D10*
X0790000Y0465000D03*
D10*
X0815400Y0465000D03*
D10*
X0840800Y0465000D03*
D10*
X0866200Y0465000D03*
D10*
X0670000Y0345000D03*
D10*
X0695400Y0345000D03*
D10*
X0720800Y0345000D03*
D10*
X0746200Y0345000D03*
D10*
X0670000Y0165000D03*
D10*
X0695400Y0165000D03*
D10*
X0720800Y0165000D03*
D10*
X0760000Y0165000D03*
D10*
X0785400Y0165000D03*
D10*
X0810800Y0165000D03*
D10*
X0790000Y0345000D03*
D10*
X0815400Y0345000D03*
D10*
X0840800Y0345000D03*
D10*
X0760000Y0250000D03*
D10*
X0785400Y0250000D03*
D10*
X0810800Y0250000D03*
D12*
X0140000Y0025000D03*
D12*
X0152000Y0508000D03*
D12*
X0660000Y0356000D03*
D12*
X0965000Y0127000D03*
D12*
X0965000Y0508000D03*
D13*
X0365400Y0430000D03*
D13*
X0850000Y0430000D03*
D13*
X0850000Y0101600D03*
D13*
X0390800Y0435000D03*
D13*
X0854200Y0435000D03*
D13*
X0854200Y0101600D03*
D13*
X0245400Y0420000D03*
D13*
X0858400Y0420000D03*
D13*
X0858400Y0127000D03*
D13*
X0270800Y0415000D03*
D13*
X0862600Y0415000D03*
D13*
X0862600Y0330200D03*
D13*
X0365400Y0410000D03*
D13*
X0866800Y0410000D03*
D13*
X0866800Y0355600D03*
D13*
X0390800Y0405000D03*
D13*
X0871000Y0405000D03*
D13*
X0871000Y0355600D03*
D13*
X0485400Y0400000D03*
D13*
X0875200Y0400000D03*
D13*
X0875200Y0406400D03*
D13*
X0245400Y0245000D03*
D13*
X0879400Y0245000D03*
D13*
X0879400Y0127000D03*
D13*
X0270800Y0250000D03*
D13*
X0883600Y0250000D03*
D13*
X0883600Y0152400D03*
D13*
X0365400Y0235000D03*
D13*
X0887800Y0235000D03*
D13*
X0887800Y0177800D03*
D13*
X0390800Y0240000D03*
D13*
X0892000Y0240000D03*
D13*
X0892000Y0203200D03*
D13*
X0485400Y0230000D03*
D13*
X0896200Y0230000D03*
D13*
X0896200Y0228600D03*
D13*
X0575400Y0225000D03*
D13*
X0900400Y0225000D03*
D13*
X0900400Y0431800D03*
D13*
X0245400Y0135000D03*
D13*
X0904599Y0135000D03*
D13*
X0904599Y0203200D03*
D13*
X0270800Y0140000D03*
D13*
X0908800Y0140000D03*
D13*
X0908800Y0381000D03*
D13*
X0365400Y0125000D03*
D13*
X0913000Y0125000D03*
D13*
X0913000Y0381000D03*
D13*
X0390800Y0130000D03*
D13*
X0917200Y0130000D03*
D13*
X0917200Y0406400D03*
D13*
X0460000Y0115000D03*
D13*
X0921400Y0115000D03*
D13*
X0921400Y0152400D03*
D13*
X0550000Y0120000D03*
D13*
X0925600Y0120000D03*
D13*
X0925600Y0177800D03*
D13*
X0695400Y0485000D03*
D13*
X0930000Y0485000D03*
D13*
X0930000Y0228600D03*
D13*
X0720800Y0480000D03*
D13*
X0934200Y0480000D03*
D13*
X0934200Y0254000D03*
D13*
X0815400Y0490000D03*
D13*
X0938400Y0490000D03*
D13*
X0938400Y0304800D03*
D13*
X0840800Y0475000D03*
D13*
X0942600Y0475000D03*
D13*
X0942600Y0330200D03*
D13*
X0695400Y0330000D03*
D13*
X0946800Y0330000D03*
D13*
X0946800Y0279400D03*
D13*
X0720800Y0335000D03*
D13*
X0951000Y0335000D03*
D13*
X0951000Y0304800D03*
D13*
X0815400Y0325000D03*
D13*
X0955200Y0325000D03*
D13*
X0955200Y0431800D03*
D13*
X0670000Y0105000D03*
D13*
X0959400Y0105000D03*
D13*
X0959400Y0254000D03*
D13*
X0760000Y0110000D03*
D13*
X0963600Y0110000D03*
D13*
X0963600Y0279400D03*
D13*
X0785400Y0220000D03*
D13*
X0967800Y0220000D03*
D13*
X0967800Y0457200D03*
M02*
