G04 PECODROP RVM ARDUINO MEGA SHIELD REV 7.0 PLUG-AND-PLAY*
%FSLAX34Y34*%
%MOMM*%
%LPD*%
%ADD10C,1.1000*%
%ADD11C,2.2000*%
%ADD12C,3.2000*%
%ADD20C,0.2500*%
%ADD21C,0.5000*%
%ADD22C,1.2000*%
%ADD23C,1.8000*%
G01*
D10*
X435000Y511000D03*
D10*
X460400Y511000D03*
D10*
X485800Y511000D03*
D10*
X511200Y511000D03*
D10*
X536600Y511000D03*
D10*
X562000Y511000D03*
D10*
X587400Y511000D03*
D10*
X612800Y511000D03*
D10*
X638200Y511000D03*
D10*
X663600Y511000D03*
D10*
X725000Y511000D03*
D10*
X750400Y511000D03*
D10*
X775800Y511000D03*
D10*
X801200Y511000D03*
D10*
X826600Y511000D03*
D10*
X852000Y511000D03*
D10*
X877400Y511000D03*
D10*
X902800Y511000D03*
D10*
X325000Y24000D03*
D10*
X350400Y24000D03*
D10*
X375800Y24000D03*
D10*
X401200Y24000D03*
D10*
X426600Y24000D03*
D10*
X452000Y24000D03*
D10*
X477400Y24000D03*
D10*
X502800Y24000D03*
D10*
X555000Y24000D03*
D10*
X580400Y24000D03*
D10*
X605800Y24000D03*
D10*
X631200Y24000D03*
D10*
X656600Y24000D03*
D10*
X682000Y24000D03*
D10*
X707400Y24000D03*
D10*
X732800Y24000D03*
D10*
X785000Y24000D03*
D10*
X810400Y24000D03*
D10*
X835800Y24000D03*
D10*
X861200Y24000D03*
D10*
X886600Y24000D03*
D10*
X912000Y24000D03*
D10*
X937400Y24000D03*
D10*
X962800Y24000D03*
D10*
X975000Y50800D03*
D10*
X1000400Y50800D03*
D10*
X975000Y76200D03*
D10*
X1000400Y76200D03*
D10*
X975000Y101600D03*
D10*
X1000400Y101600D03*
D10*
X975000Y127000D03*
D10*
X1000400Y127000D03*
D10*
X975000Y152400D03*
D10*
X1000400Y152400D03*
D10*
X975000Y177800D03*
D10*
X1000400Y177800D03*
D10*
X975000Y203200D03*
D10*
X1000400Y203200D03*
D10*
X975000Y228600D03*
D10*
X1000400Y228600D03*
D10*
X975000Y254000D03*
D10*
X1000400Y254000D03*
D10*
X975000Y279400D03*
D10*
X1000400Y279400D03*
D10*
X975000Y304800D03*
D10*
X1000400Y304800D03*
D10*
X975000Y330200D03*
D10*
X1000400Y330200D03*
D10*
X975000Y355600D03*
D10*
X1000400Y355600D03*
D10*
X975000Y381000D03*
D10*
X1000400Y381000D03*
D10*
X975000Y406400D03*
D10*
X1000400Y406400D03*
D10*
X975000Y431800D03*
D10*
X1000400Y431800D03*
D10*
X975000Y457200D03*
D10*
X1000400Y457200D03*
D10*
X975000Y482600D03*
D10*
X1000400Y482600D03*
D11*
X60000Y420000D03*
D11*
X60000Y470800D03*
D11*
X60000Y280000D03*
D11*
X60000Y330800D03*
D10*
X120000Y420000D03*
D10*
X120000Y445400D03*
D10*
X120000Y280000D03*
D10*
X120000Y305400D03*
D10*
X220000Y465000D03*
D10*
X245400Y465000D03*
D10*
X270800Y465000D03*
D10*
X296200Y465000D03*
D10*
X340000Y465000D03*
D10*
X365400Y465000D03*
D10*
X390800Y465000D03*
D10*
X416200Y465000D03*
D10*
X220000Y385000D03*
D10*
X245400Y385000D03*
D10*
X270800Y385000D03*
D10*
X296200Y385000D03*
D10*
X340000Y385000D03*
D10*
X365400Y385000D03*
D10*
X390800Y385000D03*
D10*
X416200Y385000D03*
D10*
X460000Y465000D03*
D10*
X485400Y465000D03*
D10*
X510800Y465000D03*
D10*
X550000Y465000D03*
D10*
X575400Y465000D03*
D10*
X600800Y465000D03*
D10*
X220000Y275000D03*
D10*
X245400Y275000D03*
D10*
X270800Y275000D03*
D10*
X296200Y275000D03*
D10*
X340000Y275000D03*
D10*
X365400Y275000D03*
D10*
X390800Y275000D03*
D10*
X416200Y275000D03*
D10*
X220000Y165000D03*
D10*
X245400Y165000D03*
D10*
X270800Y165000D03*
D10*
X296200Y165000D03*
D10*
X340000Y165000D03*
D10*
X365400Y165000D03*
D10*
X390800Y165000D03*
D10*
X416200Y165000D03*
D10*
X460000Y275000D03*
D10*
X485400Y275000D03*
D10*
X510800Y275000D03*
D10*
X460000Y165000D03*
D10*
X485400Y165000D03*
D10*
X510800Y165000D03*
D10*
X550000Y165000D03*
D10*
X575400Y165000D03*
D10*
X600800Y165000D03*
D10*
X670000Y465000D03*
D10*
X695400Y465000D03*
D10*
X720800Y465000D03*
D10*
X746200Y465000D03*
D10*
X790000Y465000D03*
D10*
X815400Y465000D03*
D10*
X840800Y465000D03*
D10*
X866200Y465000D03*
D10*
X670000Y325000D03*
D10*
X695400Y325000D03*
D10*
X720800Y325000D03*
D10*
X746200Y325000D03*
D10*
X670000Y165000D03*
D10*
X695400Y165000D03*
D10*
X720800Y165000D03*
D10*
X760000Y165000D03*
D10*
X785400Y165000D03*
D10*
X810800Y165000D03*
D12*
X140000Y25000D03*
D12*
X152000Y508000D03*
D12*
X660000Y356000D03*
D12*
X965000Y127000D03*
D12*
X965000Y508000D03*
D23*
X60000Y280000D02*
X180000Y280000D01*
X180000Y205000D01*
X760000Y205000D01*
M02*
