M48
METRIC,TZ
T01C0.400
T02C0.900
T03C1.500
T04C3.200
%
G90
T01
X36.540Y43.000
X85.000Y43.000
X85.000Y10.160
X39.080Y43.500
X85.420Y43.500
X85.420Y10.160
X24.540Y42.000
X85.840Y42.000
X85.840Y12.700
X27.080Y41.500
X86.260Y41.500
X86.260Y33.020
X36.540Y41.000
X86.680Y41.000
X86.680Y35.560
X39.080Y40.500
X87.100Y40.500
X87.100Y35.560
X48.540Y40.000
X87.520Y40.000
X87.520Y40.640
X24.540Y24.500
X87.940Y24.500
X87.940Y12.700
X27.080Y25.000
X88.360Y25.000
X88.360Y15.240
X36.540Y23.500
X88.780Y23.500
X88.780Y17.780
X39.080Y24.000
X89.200Y24.000
X89.200Y20.320
X48.540Y23.000
X89.620Y23.000
X89.620Y22.860
X57.540Y22.500
X90.040Y22.500
X90.040Y43.180
X24.540Y13.500
X90.460Y13.500
X90.460Y20.320
X27.080Y14.000
X90.880Y14.000
X90.880Y38.100
X36.540Y12.500
X91.300Y12.500
X91.300Y38.100
X39.080Y13.000
X91.720Y13.000
X91.720Y40.640
X46.000Y11.500
X92.140Y11.500
X92.140Y15.240
X55.000Y12.000
X92.560Y12.000
X92.560Y17.780
X69.540Y48.500
X93.000Y48.500
X93.000Y22.860
X72.080Y48.000
X93.420Y48.000
X93.420Y25.400
X81.540Y49.000
X93.840Y49.000
X93.840Y30.480
X84.080Y47.500
X94.260Y47.500
X94.260Y33.020
X69.540Y33.000
X94.680Y33.000
X94.680Y27.940
X72.080Y33.500
X95.100Y33.500
X95.100Y30.480
X81.540Y32.500
X95.520Y32.500
X95.520Y43.180
X67.000Y10.500
X95.940Y10.500
X95.940Y25.400
X76.000Y11.000
X96.360Y11.000
X96.360Y27.940
X78.540Y22.000
X96.780Y22.000
X96.780Y45.720
T02
X43.500Y51.100
X46.040Y51.100
X48.580Y51.100
X51.120Y51.100
X53.660Y51.100
X56.200Y51.100
X58.740Y51.100
X61.280Y51.100
X63.820Y51.100
X66.360Y51.100
X72.500Y51.100
X75.040Y51.100
X77.580Y51.100
X80.120Y51.100
X82.660Y51.100
X85.200Y51.100
X87.740Y51.100
X90.280Y51.100
X32.500Y02.400
X35.040Y02.400
X37.580Y02.400
X40.120Y02.400
X42.660Y02.400
X45.200Y02.400
X47.740Y02.400
X50.280Y02.400
X55.500Y02.400
X58.040Y02.400
X60.580Y02.400
X63.120Y02.400
X65.660Y02.400
X68.200Y02.400
X70.740Y02.400
X73.280Y02.400
X78.500Y02.400
X81.040Y02.400
X83.580Y02.400
X86.120Y02.400
X88.660Y02.400
X91.200Y02.400
X93.740Y02.400
X96.280Y02.400
X97.500Y05.080
X100.040Y05.080
X97.500Y07.620
X100.040Y07.620
X97.500Y10.160
X100.040Y10.160
X97.500Y12.700
X100.040Y12.700
X97.500Y15.240
X100.040Y15.240
X97.500Y17.780
X100.040Y17.780
X97.500Y20.320
X100.040Y20.320
X97.500Y22.860
X100.040Y22.860
X97.500Y25.400
X100.040Y25.400
X97.500Y27.940
X100.040Y27.940
X97.500Y30.480
X100.040Y30.480
X97.500Y33.020
X100.040Y33.020
X97.500Y35.560
X100.040Y35.560
X97.500Y38.100
X100.040Y38.100
X97.500Y40.640
X100.040Y40.640
X97.500Y43.180
X100.040Y43.180
X97.500Y45.720
X100.040Y45.720
X97.500Y48.260
X100.040Y48.260
X12.000Y42.000
X12.000Y44.540
X12.000Y28.000
X12.000Y30.540
X16.500Y42.000
X19.040Y42.000
X16.500Y28.000
X19.040Y28.000
X22.000Y46.500
X24.540Y46.500
X27.080Y46.500
X29.620Y46.500
X34.000Y46.500
X36.540Y46.500
X39.080Y46.500
X41.620Y46.500
X22.000Y38.500
X24.540Y38.500
X27.080Y38.500
X29.620Y38.500
X34.000Y38.500
X36.540Y38.500
X39.080Y38.500
X41.620Y38.500
X46.000Y46.500
X48.540Y46.500
X51.080Y46.500
X55.000Y46.500
X57.540Y46.500
X60.080Y46.500
X46.000Y38.500
X48.540Y38.500
X51.080Y38.500
X22.000Y27.500
X24.540Y27.500
X27.080Y27.500
X29.620Y27.500
X34.000Y27.500
X36.540Y27.500
X39.080Y27.500
X41.620Y27.500
X22.000Y16.500
X24.540Y16.500
X27.080Y16.500
X29.620Y16.500
X34.000Y16.500
X36.540Y16.500
X39.080Y16.500
X41.620Y16.500
X46.000Y27.500
X48.540Y27.500
X51.080Y27.500
X46.000Y16.500
X48.540Y16.500
X51.080Y16.500
X55.000Y16.500
X57.540Y16.500
X60.080Y16.500
X55.000Y27.500
X57.540Y27.500
X60.080Y27.500
X67.000Y46.500
X69.540Y46.500
X72.080Y46.500
X74.620Y46.500
X79.000Y46.500
X81.540Y46.500
X84.080Y46.500
X86.620Y46.500
X67.000Y34.500
X69.540Y34.500
X72.080Y34.500
X74.620Y34.500
X67.000Y16.500
X69.540Y16.500
X72.080Y16.500
X76.000Y16.500
X78.540Y16.500
X81.080Y16.500
X79.000Y34.500
X81.540Y34.500
X84.080Y34.500
X76.000Y25.000
X78.540Y25.000
X81.080Y25.000
T03
X06.000Y42.000
X06.000Y47.080
X06.000Y28.000
X06.000Y33.080
T04
X14.000Y02.500
X15.200Y50.800
X66.000Y35.600
X96.500Y12.700
X96.500Y50.800
M30
