M48
METRIC,TZ
T01C0.800
T02C1.600
T03C3.200
%
T01
X43.500Y51.100
X46.040Y51.100
X48.580Y51.100
X51.120Y51.100
X53.660Y51.100
X56.200Y51.100
X58.740Y51.100
X61.280Y51.100
X63.820Y51.100
X66.360Y51.100
X72.500Y51.100
X75.040Y51.100
X77.580Y51.100
X80.120Y51.100
X82.660Y51.100
X85.200Y51.100
X87.740Y51.100
X90.280Y51.100
X32.500Y2.400
X35.040Y2.400
X37.580Y2.400
X40.120Y2.400
X42.660Y2.400
X45.200Y2.400
X47.740Y2.400
X50.280Y2.400
X55.500Y2.400
X58.040Y2.400
X60.580Y2.400
X63.120Y2.400
X65.660Y2.400
X68.200Y2.400
X70.740Y2.400
X73.280Y2.400
X78.500Y2.400
X81.040Y2.400
X83.580Y2.400
X86.120Y2.400
X88.660Y2.400
X91.200Y2.400
X93.740Y2.400
X96.280Y2.400
X97.500Y5.080
X100.040Y5.080
X97.500Y7.620
X100.040Y7.620
X97.500Y10.160
X100.040Y10.160
X97.500Y12.700
X100.040Y12.700
X97.500Y15.240
X100.040Y15.240
X97.500Y17.780
X100.040Y17.780
X97.500Y20.320
X100.040Y20.320
X97.500Y22.860
X100.040Y22.860
X97.500Y25.400
X100.040Y25.400
X97.500Y27.940
X100.040Y27.940
X97.500Y30.480
X100.040Y30.480
X97.500Y33.020
X100.040Y33.020
X97.500Y35.560
X100.040Y35.560
X97.500Y38.100
X100.040Y38.100
X97.500Y40.640
X100.040Y40.640
X97.500Y43.180
X100.040Y43.180
X97.500Y45.720
X100.040Y45.720
X97.500Y48.260
X100.040Y48.260
X12.000Y42.000
X12.000Y44.540
X12.000Y28.000
X12.000Y30.540
X22.000Y46.500
X24.540Y46.500
X27.080Y46.500
X29.620Y46.500
X34.000Y46.500
X36.540Y46.500
X39.080Y46.500
X41.620Y46.500
X22.000Y38.500
X24.540Y38.500
X27.080Y38.500
X29.620Y38.500
X34.000Y38.500
X36.540Y38.500
X39.080Y38.500
X41.620Y38.500
X46.000Y46.500
X48.540Y46.500
X51.080Y46.500
X55.000Y46.500
X57.540Y46.500
X60.080Y46.500
X22.000Y27.500
X24.540Y27.500
X27.080Y27.500
X29.620Y27.500
X34.000Y27.500
X36.540Y27.500
X39.080Y27.500
X41.620Y27.500
X22.000Y16.500
X24.540Y16.500
X27.080Y16.500
X29.620Y16.500
X34.000Y16.500
X36.540Y16.500
X39.080Y16.500
X41.620Y16.500
X46.000Y27.500
X48.540Y27.500
X51.080Y27.500
X46.000Y16.500
X48.540Y16.500
X51.080Y16.500
X55.000Y16.500
X57.540Y16.500
X60.080Y16.500
X67.000Y46.500
X69.540Y46.500
X72.080Y46.500
X74.620Y46.500
X79.000Y46.500
X81.540Y46.500
X84.080Y46.500
X86.620Y46.500
X67.000Y32.500
X69.540Y32.500
X72.080Y32.500
X74.620Y32.500
X67.000Y16.500
X69.540Y16.500
X72.080Y16.500
X76.000Y16.500
X78.540Y16.500
X81.080Y16.500
T02
X6.000Y42.000
X6.000Y47.080
X6.000Y28.000
X6.000Y33.080
T03
X14.000Y2.500
X15.200Y50.800
X66.000Y35.600
X96.500Y12.700
X96.500Y50.800
M30
